<!-- static/github.svg -->
<svg xmlns="http://www.w3.org/2000/svg" viewBox="0 0 24 24" fill="currentColor">
  <path
    d="M12 .5C5.73.5.5 5.73.5 12c0 5.08 3.29 9.39 7.86 10.91.58.11.79-.25.79-.55
    0-.27-.01-1.15-.02-2.09-3.2.7-3.88-1.37-3.88-1.37-.52-1.31-1.28-1.66-1.28-1.66
    -1.05-.72.08-.71.08-.71 1.17.08 1.78 1.2 1.78 1.2 1.03 1.77 2.71 1.26 3.37.97.11-.75.4-1.26.72-1.55
    -2.55-.29-5.23-1.28-5.23-5.68 0-1.25.45-2.27 1.2-3.07-.12-.29-.52-1.45.11-3.02 0 0 .97-.31 3.18 1.17
    .92-.26 1.9-.39 2.88-.39.98 0 1.96.13 2.88.39 2.2-1.48 3.18-1.17 3.18-1.17.63 1.57.23 2.73.11 3.02
    .75.8 1.2 1.82 1.2 3.07 0 4.41-2.69 5.39-5.25 5.67.42.36.77 1.08.77 2.18 0 1.57-.01 2.84-.01 3.23
    0 .3.21.66.8.55A10.5 10.5 0 0 0 23.5 12C23.5 5.73 18.27.5 12 .5z"
  />
</svg>
